<?xml version="1.0" encoding="UTF-8" standalone="no"?>
<!DOCTYPE svg PUBLIC "-//W3C//DTD SVG 1.1//EN" "http://www.w3.org/Graphics/SVG/1.1/DTD/svg11.dtd">
<svg width="100%" height="100%" viewBox="0 0 1200 267" version="1.1" xmlns="http://www.w3.org/2000/svg" xmlns:xlink="http://www.w3.org/1999/xlink" xml:space="preserve" xmlns:serif="http://www.serif.com/" style="fill-rule:evenodd;clip-rule:evenodd;stroke-linejoin:round;stroke-miterlimit:2;">
    <g transform="matrix(1,0,0,1,0,-6.97506)">
        <g transform="matrix(1.3,0,0,1.3,-180,-379.999)">
            <path d="M508.942,376.916C507.265,377.933 505.064,377.499 503.899,375.922C498.261,367.829 488.898,363.112 479.039,363.398C460.099,363.398 448.473,378.384 448.473,399.787C448.473,421.19 460.312,436.462 479.252,436.462C489.25,436.701 498.687,431.739 504.159,423.369C505.269,421.771 507.446,421.284 509.131,422.256L518.128,427.465C519.415,428.117 520.229,429.442 520.229,430.885C520.229,431.678 519.983,432.452 519.525,433.1C510.593,446.486 495.362,454.362 479.276,453.91C448.994,453.91 428.467,431.94 428.467,399.907C428.467,367.873 448.994,346.185 478.826,346.185C494.628,345.746 509.657,353.19 518.886,366.026C519.372,366.687 519.634,367.488 519.634,368.309C519.634,369.628 518.958,370.859 517.844,371.566L508.942,376.916Z" style="fill:white;fill-rule:nonzero;"/>
        </g>
        <g transform="matrix(1.3,0,0,1.3,-180,-379.999)">
            <path d="M575.139,443.753L575.139,448.111C575.139,450.19 576.85,451.901 578.93,451.901C578.984,451.901 579.039,451.9 579.093,451.898L588.99,451.898C591.068,451.898 592.778,450.188 592.778,448.109L592.778,398.627C592.778,380.704 580.041,373.294 562,373.294C551.859,373.317 541.877,375.821 532.926,380.586C531.16,381.569 530.468,383.794 531.363,385.605L534.606,392.376C535.234,393.657 536.541,394.472 537.967,394.472C538.596,394.472 539.216,394.313 539.768,394.01C546.159,390.689 553.235,388.898 560.437,388.778C566.711,388.778 574.122,390.507 574.122,396.923C574.122,403.634 566.015,404.778 556.013,406.19C555.207,406.303 554.401,406.418 553.595,406.535C543.272,407.979 526.533,411.199 526.533,429.974C526.533,445.056 537.448,453.65 553.169,453.65C563.799,453.65 570.405,449.862 575.139,443.753ZM559.624,418.237C565.602,417.188 571.025,416.237 574.122,413.898L574.122,422.706C574.122,434.212 565.835,439.16 556.956,439.16C549.807,439.16 544.858,435.964 544.858,429.122C544.858,421.687 550.54,419.864 557.383,418.633C558.136,418.498 558.884,418.366 559.624,418.237Z" style="fill:white;"/>
        </g>
        <g transform="matrix(1.3,0,0,1.3,-180,-379.999)">
            <path d="M609.043,432.294C610.363,430.758 612.692,430.537 614.276,431.797C620.605,436.577 628.366,439.08 636.295,438.9C644.463,438.9 650.5,436.272 650.5,429.88C650.5,424.055 644.96,422.895 631.56,420.551C617.354,418.183 603.764,413.448 603.764,397.254C603.764,380.373 618.325,373.248 634.921,373.248C645.327,373.093 655.49,376.428 663.782,382.717C664.698,383.434 665.235,384.535 665.235,385.699C665.235,386.613 664.904,387.497 664.303,388.186L659.568,393.75C658.272,395.29 655.968,395.553 654.359,394.342C648.526,390.075 641.462,387.815 634.235,387.902C627.251,387.902 621.142,389.939 621.142,395.455C621.142,401.587 629.713,402.747 638.307,404.215C656.656,407.411 668.304,412.643 668.304,427.891C668.304,443.896 655.496,453.792 635.158,453.792C624.045,454.132 613.155,450.58 604.38,443.753C603.491,443.025 602.974,441.935 602.974,440.786C602.974,439.879 603.296,439.001 603.882,438.308L609.043,432.294ZM679.551,448.109L679.551,351.748C679.551,349.67 681.26,347.96 683.338,347.96L694.253,347.96C696.345,347.96 698.041,349.656 698.041,351.748L698.041,384.658C703.551,377.306 712.297,373.066 721.481,373.293C737.628,373.293 747.097,384.8 747.097,401.231L747.097,448.11C747.097,450.188 745.388,451.898 743.31,451.898L732.395,451.898C730.317,451.898 728.606,450.188 728.606,448.109L728.606,405.493C728.606,397.325 725.979,389.914 715.514,389.914C705.594,389.914 698.041,396.899 698.041,408.547L698.041,448.133C698.041,450.211 696.331,451.921 694.253,451.921L683.315,451.921C681.25,451.921 679.55,450.222 679.55,448.156C679.55,448.141 679.55,448.125 679.551,448.109Z" style="fill:white;fill-rule:nonzero;"/>
        </g>
        <g transform="matrix(1.3,0,0,1.3,-180,-379.999)">
            <path d="M859.347,426.138L867.207,449.341C867.692,450.885 869.115,451.955 870.733,451.992L884.256,451.992C885.493,451.998 886.658,451.395 887.368,450.381C888.082,449.368 888.255,448.066 887.828,446.902L852.196,350.541C851.637,349.055 850.211,348.062 848.623,348.055L831.127,348.055C829.571,348.037 828.156,348.98 827.574,350.423L791.798,446.807C791.645,447.224 791.567,447.665 791.567,448.109C791.567,450.185 793.273,451.894 795.349,451.898L808.155,451.898C809.77,451.903 811.216,450.87 811.735,449.341L819.614,426.138L859.347,426.138ZM824.402,409.968L839.695,364.842L854.399,409.968L824.402,409.968ZM915.268,384.8L915.268,378.834C915.322,377.797 914.945,376.782 914.226,376.032C913.511,375.281 912.518,374.856 911.481,374.857L900.563,374.857C898.473,374.857 896.777,376.553 896.777,378.645L896.777,473.348C896.777,475.44 898.473,477.136 900.563,477.136L911.481,477.136C913.571,477.136 915.268,475.44 915.268,473.348L915.268,441.93C920.689,449.547 929.605,453.932 938.947,453.578C959.895,453.578 973.438,436.036 973.438,413.33C973.438,390.625 959.895,373.294 938.947,373.294C929.633,372.917 920.727,377.244 915.268,384.8ZM953.999,413.33C953.999,426.565 947.869,437.504 935.061,437.504C922.019,437.504 915.268,426.588 915.268,413.33C915.268,400.071 922.373,389.441 935.061,389.441C947.748,389.441 953.999,400.095 953.999,413.33ZM1003.34,384.8L1003.34,378.833C1003.4,377.795 1003.03,376.778 1002.31,376.024C1001.59,375.271 1000.6,374.848 999.555,374.856L988.637,374.856C986.559,374.856 984.85,376.566 984.85,378.643L984.85,473.348C984.85,475.44 986.547,477.135 988.637,477.135L999.555,477.135C1001.64,477.135 1003.34,475.44 1003.34,473.347L1003.34,441.929C1008.77,449.538 1017.68,453.922 1027.02,453.578C1048,453.578 1061.54,436.034 1061.54,413.329C1061.54,390.624 1048,373.293 1027.02,373.293C1017.71,372.924 1008.81,377.25 1003.34,384.8ZM1042.1,413.329C1042.1,426.564 1035.97,437.502 1023.16,437.502C1010.19,437.502 1003.34,426.587 1003.34,413.329C1003.34,400.07 1010.47,389.44 1023.16,389.44C1035.85,389.44 1042.1,400.094 1042.1,413.329Z" style="fill:white;"/>
        </g>
        <g transform="matrix(1.3,0,0,1.3,-180,-379.999)">
            <path d="M271.709,297.673C292.355,297.673 302.512,297.673 313.663,301.177C325.771,305.561 335.322,315.112 339.707,327.22C343.211,338.277 343.211,348.529 343.211,369.079L343.211,430.921C343.211,451.448 343.211,461.699 339.707,472.78C335.322,484.888 325.771,494.439 313.663,498.823C302.606,502.327 292.355,502.327 271.804,502.327L209.773,502.327C189.246,502.327 178.995,502.327 167.914,498.823C155.806,494.439 146.255,484.888 141.871,472.78C138.462,461.723 138.462,451.566 138.462,430.921L138.462,368.985C138.462,348.458 138.462,338.207 141.965,327.125C146.35,315.017 155.901,305.466 168.009,301.082C178.971,297.673 189.246,297.673 209.774,297.673L271.709,297.673Z" style="fill:white;"/>
        </g>
        <g transform="matrix(1.3,0,0,1.3,-180,-379.999)">
            <path d="M245.95,364.747C256.006,364.763 265.739,368.337 273.414,374.833C275.051,376.316 277.593,376.264 279.167,374.715L287.075,366.784C287.841,366.024 288.272,364.989 288.272,363.91C288.272,362.731 287.757,361.609 286.862,360.84C280.651,355.557 273.469,351.536 265.719,349.003L268.087,337.33C268.143,337.058 268.171,336.781 268.171,336.504C268.171,334.243 266.311,332.382 264.05,332.382L248.815,332.382C246.879,332.38 245.187,333.736 244.766,335.626L242.636,346.067C222.369,347.062 205.18,357.1 205.18,377.674C205.18,395.455 219.386,403.102 234.396,408.453C248.601,413.733 256.131,415.699 256.131,423.132C256.131,430.566 248.626,435.254 237.569,435.254C226.843,435.425 216.47,431.367 208.708,423.962C207.115,422.395 204.524,422.395 202.931,423.962L194.455,432.247C193.655,433.018 193.203,434.083 193.203,435.194C193.203,436.306 193.655,437.37 194.455,438.142C201.361,444.61 209.791,449.229 218.959,451.566L216.592,462.387C216.534,462.668 216.504,462.954 216.504,463.241C216.504,465.514 218.344,467.399 220.617,467.454L235.888,467.454C237.84,467.464 239.547,466.094 239.96,464.186L242.162,453.934C266.453,452.443 281.298,439.374 281.298,420.243C281.298,402.629 266.501,395.195 248.531,389.134C238.256,385.274 229.377,382.741 229.377,375.117C229.377,367.494 237.663,364.747 245.95,364.747Z" style="fill:rgb(0,213,75);fill-rule:nonzero;"/>
        </g>
    </g>
</svg>
