<?xml version="1.0" encoding="UTF-8" standalone="no"?>
<!DOCTYPE svg PUBLIC "-//W3C//DTD SVG 1.1//EN" "http://www.w3.org/Graphics/SVG/1.1/DTD/svg11.dtd">
<svg width="100%" height="100%" viewBox="0 0 500 127" version="1.1" xmlns="http://www.w3.org/2000/svg" xmlns:xlink="http://www.w3.org/1999/xlink" xml:space="preserve" xmlns:serif="http://www.serif.com/" style="fill-rule:evenodd;clip-rule:evenodd;stroke-linejoin:round;stroke-miterlimit:2;">
    <g transform="matrix(1,0,0,1,6.29921e-16,-4.05696)">
        <g id="XMLID_1_" transform="matrix(1.31569,0,0,1.31569,-78.8055,-261.424)">
            <g transform="matrix(1,0,0,1,32.4187,40.9816)">
                <path id="XMLID_15_" d="M97.1,168.1C92.6,163 84.6,160.8 74.2,160.8L44.2,160.8C42.1,160.8 40.3,162.3 40,164.4L27.5,243.5C27.3,245.1 28.5,246.5 30,246.5L48.5,246.5L53.1,217L53,217.9C53.3,215.8 55.1,214.3 57.2,214.3L66,214.3C83.3,214.3 96.8,207.3 100.7,187C100.8,186.4 100.9,185.8 101,185.2C102.4,177.8 101.2,172.7 97.1,168.1" style="fill:rgb(0,48,135);fill-rule:nonzero;"/>
            </g>
            <g transform="matrix(1,0,0,1,117.331,26.8632)">
                <path d="M238.6,219.9C237.5,227.3 231.8,227.3 226.3,227.3L223.2,227.3L225.4,213.4C225.5,212.6 226.3,211.9 227.1,211.9L228.5,211.9C232.2,211.9 235.8,211.9 237.6,214C238.7,215.4 239,217.2 238.6,219.9M236.2,200.5L215.5,200.5C214.1,200.5 212.9,201.5 212.7,202.9L204.3,255.9C204.1,256.9 204.9,257.9 206,257.9L216.6,257.9C217.6,257.9 218.4,257.2 218.6,256.2L221,241.2C221.2,239.8 222.4,238.8 223.8,238.8L230.3,238.8C243.9,238.8 251.8,232.2 253.8,219.1C254.7,213.4 253.8,208.9 251.2,205.8C248.3,202.3 243.1,200.5 236.2,200.5" style="fill:rgb(0,156,222);fill-rule:nonzero;"/>
            </g>
            <g transform="matrix(1,0,0,1,62.0115,26.8632)">
                <path d="M146.4,219.9C145.3,227.3 139.6,227.3 134.1,227.3L131,227.3L133.2,213.4C133.3,212.6 134.1,211.9 134.9,211.9L136.3,211.9C140,211.9 143.6,211.9 145.4,214C146.5,215.4 146.8,217.2 146.4,219.9M144,200.5L123.3,200.5C121.9,200.5 120.7,201.5 120.5,202.9L112.1,255.9C111.9,256.9 112.7,257.9 113.8,257.9L123.7,257.9C125.1,257.9 126.3,256.9 126.5,255.5L128.8,241.2C129,239.8 130.2,238.8 131.6,238.8L138.1,238.8C151.7,238.8 159.6,232.2 161.6,219.1C162.5,213.4 161.6,208.9 159,205.8C156.2,202.3 151,200.5 144,200.5" style="fill:rgb(0,48,135);fill-rule:nonzero;"/>
            </g>
            <g transform="matrix(1,0,0,1,79.1228,19.7234)">
                <path d="M174.9,246C173.9,251.7 169.5,255.5 163.7,255.5C160.8,255.5 158.5,254.6 157.1,252.8C155.6,251.1 155.1,248.6 155.5,245.8C156.4,240.2 161,236.3 166.6,236.3C169.4,236.3 171.7,237.2 173.2,239C174.8,240.8 175.4,243.3 174.9,246M188.7,226.8L178.8,226.8C178,226.8 177.2,227.4 177.1,228.3L176.7,231.1L176,230.1C173.9,227 169.1,225.9 164.3,225.9C153.4,225.9 144,234.2 142.2,245.8C141.3,251.6 142.6,257.1 145.9,261C148.9,264.6 153.2,266 158.4,266C167.2,266 172.1,260.3 172.1,260.3L171.7,263.1C171.5,264.1 172.3,265.1 173.4,265.1L182.3,265.1C183.7,265.1 184.9,264.1 185.1,262.7L190.5,228.8C190.6,227.7 189.8,226.8 188.7,226.8" style="fill:rgb(0,48,135);fill-rule:nonzero;"/>
            </g>
            <g transform="matrix(1,0,0,1,134.443,19.7234)">
                <path d="M267.1,246C266.1,251.7 261.7,255.5 255.9,255.5C253,255.5 250.7,254.6 249.3,252.8C247.8,251.1 247.3,248.6 247.7,245.8C248.6,240.2 253.2,236.3 258.8,236.3C261.6,236.3 263.9,237.2 265.4,239C266.9,240.8 267.5,243.3 267.1,246M280.9,226.8L271,226.8C270.2,226.8 269.4,227.4 269.3,228.3L268.9,231.1L268.2,230.1C266.1,227 261.3,225.9 256.5,225.9C245.6,225.9 236.2,234.2 234.4,245.8C233.5,251.6 234.8,257.1 238.1,261C241.1,264.6 245.4,266 250.6,266C259.4,266 264.3,260.3 264.3,260.3L263.9,263.1C263.7,264.1 264.5,265.1 265.6,265.1L274.5,265.1C275.9,265.1 277.1,264.1 277.3,262.7L282.7,228.8C282.8,227.7 282,226.8 280.9,226.8" style="fill:rgb(0,156,222);fill-rule:nonzero;"/>
            </g>
            <g transform="matrix(1,0,0,1,104.079,26.9523)">
                <path id="XMLID_6_" d="M216.5,219.5L206.5,219.5C205.5,219.5 204.7,220 204.1,220.8L190.5,241L184.7,221.6C184.3,220.4 183.2,219.5 181.9,219.5L172.1,219.5C170.9,219.5 170.1,220.7 170.5,221.8L181.5,254L171.2,268.5C170.4,269.6 171.2,271.2 172.6,271.2L182.5,271.2C183.4,271.2 184.3,270.7 184.9,270L218,222.2C218.7,221.1 217.9,219.5 216.5,219.5" style="fill:rgb(0,48,135);fill-rule:nonzero;"/>
            </g>
            <g transform="matrix(1,0,0,1,143.996,33.5807)">
                <path id="XMLID_5_" d="M283,195.2L274.5,249.2C274.3,250.2 275.1,251.2 276.2,251.2L284.7,251.2C286.1,251.2 287.3,250.2 287.5,248.8L295.9,195.8C296.1,194.8 295.3,193.8 294.2,193.8L284.7,193.8C283.9,193.8 283.2,194.4 283,195.2" style="fill:rgb(0,156,222);fill-rule:nonzero;"/>
            </g>
            <g transform="matrix(1,0,0,1,32.4187,40.9816)">
                <path id="XMLID_4_" d="M97.1,168.1C92.6,163 84.6,160.8 74.2,160.8L44.2,160.8C42.1,160.8 40.3,162.3 40,164.4L27.5,243.5C27.3,245.1 28.5,246.5 30,246.5L48.5,246.5L53.1,217L53,217.9C53.3,215.8 55.1,214.3 57.2,214.3L66,214.3C83.3,214.3 96.8,207.3 100.7,187C100.8,186.4 100.9,185.8 101,185.2C102.4,177.8 101.2,172.7 97.1,168.1" style="fill:rgb(0,48,135);fill-rule:nonzero;"/>
            </g>
            <g transform="matrix(1,0,0,1,17.8489,34.4853)">
                <path id="XMLID_3_" d="M72.9,191.9C73.1,190.6 73.9,189.6 75,189.1C75.5,188.9 76,188.7 76.6,188.7L100,188.7C102.8,188.7 105.4,188.9 107.7,189.3C108.4,189.4 109,189.5 109.7,189.7C110.3,189.8 111,190 111.6,190.2C111.9,190.3 112.2,190.4 112.5,190.5C113.7,190.9 114.8,191.3 115.7,191.9C116.9,184.4 115.7,179.3 111.6,174.7C107.1,169.6 99.1,167.4 88.7,167.4L58.7,167.4C56.6,167.4 54.8,168.9 54.5,171L42.2,250C42,251.6 43.2,253 44.7,253L63.2,253L67.8,223.5L72.9,191.9Z" style="fill:rgb(0,48,135);fill-rule:nonzero;"/>
            </g>
            <g transform="matrix(1,0,0,1,33.9429,34.5226)">
                <path id="XMLID_16_" d="M99.7,191.8C99.6,192.4 99.5,193 99.4,193.6C95.5,213.9 81.9,220.9 64.7,220.9L55.9,220.9C53.8,220.9 52,222.4 51.7,224.5L47.1,253L45.8,261.1C45.6,262.5 46.6,263.7 48,263.7L63.6,263.7C65.4,263.7 67,262.4 67.3,260.5L67.5,259.7L70.4,241.1L70.6,240.1C70.9,238.3 72.5,236.9 74.3,236.9L76.6,236.9C91.7,236.9 103.5,230.8 107,213C108.4,205.6 107.7,199.4 103.9,195C102.8,193.7 101.3,192.7 99.7,191.8" style="fill:rgb(0,156,222);fill-rule:nonzero;"/>
            </g>
            <g transform="matrix(1,0,0,1,32.3922,35.1407)">
                <path id="XMLID_17_" d="M97.1,189.5C96.5,189.3 95.9,189.2 95.2,189C94.6,188.9 93.9,188.7 93.2,188.6C90.8,188.2 88.2,188 85.5,188L62,188C61.4,188 60.9,188.1 60.4,188.4C59.3,188.9 58.5,189.9 58.3,191.2L53.3,222.8L53.2,223.7C53.5,221.6 55.3,220.1 57.4,220.1L66.2,220.1C83.5,220.1 97,213.1 100.9,192.8C101,192.2 101.1,191.6 101.2,191C100.2,190.5 99.1,190 98,189.6C97.7,189.7 97.4,189.6 97.1,189.5" style="fill:rgb(1,33,105);fill-rule:nonzero;"/>
            </g>
        </g>
    </g>
</svg>
